<?xml version="1.0" encoding="utf-8"?>
<!-- Generator: Adobe Illustrator 19.1.0, SVG Export Plug-In . SVG Version: 6.00 Build 0)  -->
<svg version="1.1" id="Capa_1" xmlns="http://www.w3.org/2000/svg" xmlns:xlink="http://www.w3.org/1999/xlink" x="0px" y="0px"
	 viewBox="-282.4 367 67.4 60" style="enable-background:new -282.4 367 67.4 60;" xml:space="preserve">
<style type="text/css">
	.st0{fill:#871B1B;}
	.st1{fill:#FFFFFF;}
	.st2{fill:#DD352E;}
	.st3{fill:#C03A2B;}
	.st4{fill:#B02721;}
</style>
<rect x="-258.5" y="398" class="st0" width="10" height="6"/>
<path class="st1" d="M-272.5,367c-1.1,0-2,0.4-2,1v3v55c0,0.6,0.9,1,2,1c1.1,0,2-0.4,2-1v-55v-3C-270.5,367.4-271.4,367-272.5,367z"
	/>
<rect x="-270.5" y="371" class="st2" width="22" height="29"/>
<path class="st3" d="M-248.5,376v24h-6c-2.2,0-4,1.8-4,4s1.8,4,4,4h4h33l-11-16l11-16H-248.5z"/>
<path class="st4" d="M-258.5,404c0,2.2,1.8,4,4,4h4h2v-8h-6C-256.7,400-258.5,401.8-258.5,404z"/>
<path class="st1" d="M-279,427h13.1c0.7,0,1.3-0.6,1.3-1.3v-1.1c0-0.7-0.6-1.3-1.3-1.3H-279c-0.7,0-1.3,0.6-1.3,1.3v1.1
	C-280.2,426.4-279.7,427-279,427z"/>
</svg>
